Patient4_TMGait_0pt7_02_right_38_EMG.mot
version=1
nRows=16
nColumns=33
inDegrees=no
endheader
time	1LAddLong	2LGlutMax	3LGlutMed	4LIliopsoas	5LSemiMemb	6LBicFemLong	7LRecFem	8LVastMed	9LVastLat	10LGasMed	11LTibAnt	12lTibPost	13LPeroneusLong	14LSol	15LExtDigLong	16LFlexDigLong	17RAddLong	18RGlutMax	19RGlutMed	20RIliopsoas	21RSemiMemb	22RBicFemLong	23RRecFem	24RVastMed	25RVastLat	26RGasMed	27RTibAnt	28RTibPost	29RPeroneusLong	30RSol	31RExtDigLong	32RFlexDigLong
42.94	0.002441	0.15686	0.29098	0.009003	0.016479	0.39719	0.072632	0.016479	-0.001526	-0.28793	-0.08255	0.006104	0.081177	-0.034027	0.079803	0.10208	-0.056152	-0.25116	0.70206	-0.23422	-0.05661	0.075531	0.11398	-0.078583	-0.009308	-0.004578	0.099792	-0.00351	-0.053711	0.028839	0.002441	-0.009613
42.941	0.012665	0.16037	0.2681	0.009308	0.02243	0.65277	0.061035	0.023499	-0.007935	0.048218	-0.05188	0.012054	0.06897	-0.15198	0.052185	0.063934	-0.057983	-0.28442	0.29663	-0.14572	-0.12482	0.05188	0.10605	-0.095825	0.01297	-0.001068	-0.15808	-0.003052	-0.048981	0.004578	-0.001526	-0.007477
42.942	0.014343	0.2359	0.14053	0.005798	0.055084	0.58441	0.070343	0.008698	0.078888	0.44739	-0.029602	0.002899	-0.000458	-0.19241	-0.029907	-0.034027	-0.072784	-0.12695	-0.00946	0.018158	-0.13046	0.014496	0.20523	-0.085297	0.037994	-0.014038	-0.10834	-0.000916	-0.023956	-0.011444	0.003357	-0.006714
42.943	0.005951	0.18936	0.065613	0.005951	0.037384	-0.24307	0.075531	0.005035	0.14023	0.39703	-0.035553	-0.010223	-0.027618	-0.19363	0.003052	-0.06546	-0.088196	-0.16724	-0.066833	0.12024	-0.11826	0.019379	0.30334	-0.048218	0.010223	-0.003662	0.032043	-0.005646	-0.008087	-0.019379	0.003052	0.002136
42.944	0.00946	0.093842	-0.018921	0.014343	0.022278	-0.33859	0.051117	0.008545	0.085144	0.15076	-0.016022	-0.009003	0.008545	-0.43778	0.083466	-0.032043	-0.094604	-0.17395	0.006561	0.24582	0.008392	0.037689	0.3035	-0.055084	0.042267	0.004578	0.10864	0.001068	-0.056763	-0.081177	0.00061	-0.011139
42.945	0.011597	-0.023041	-0.037537	-0.007629	0.057983	-0.31784	0.081787	0.007172	0.049744	0.093842	0.015259	-0.001984	0.026855	-0.1828	0.090179	-0.030518	-0.079041	-0.15778	0.3244	0.28839	0.10086	0.042572	0.28854	-0.06012	0.020599	0.006409	0.18555	-0.006256	-0.12268	-0.093994	-0.003815	-0.021057
42.946	0.017242	-0.11307	-0.033264	0.004272	0.053253	-0.36179	0.077667	0.009766	0.083313	0.078888	0.05661	-0.008545	0.037384	-0.024872	0.12528	-0.02533	-0.052185	-0.11276	1.1156	0.2626	0.014496	0.056	0.37064	-0.12344	0.001831	0.006409	0.037231	-0.001678	-0.17242	-0.11017	0.002136	-0.021667
42.947	0.003357	-0.15533	-0.050354	-0.007019	-0.046082	-0.24872	0.094757	0.004578	0.041199	0.35553	0.093994	-0.003357	0.10452	-0.11749	0.11063	-0.026245	-0.014343	-0.12192	1.2505	0.23956	-0.039673	0.052032	0.34698	-0.18875	0.007935	-0.004425	-0.1471	0.000153	0.17258	-0.074615	0.00061	-0.016327
42.948	0.011139	-0.1973	-0.082703	0.005341	-0.08194	-0.09903	0.13229	0.016937	-0.002594	0.21118	0.066376	0.009308	0.12466	-0.10742	0.081177	0.003052	-0.00824	-0.168	0.55435	0.11292	-0.028687	0.019379	0.18539	-0.23773	-0.002747	-0.011749	-0.12528	-0.003357	0.010376	-0.045776	0.000305	-0.013428
42.949	0.009766	-0.23529	-0.040131	0.019684	0.002289	0.009918	0.13748	0.010071	-0.004578	-0.79895	0.063629	0.002136	0.092926	0.048218	0.021515	-0.16251	-0.00473	-0.17258	-0.10712	-0.090179	-0.039063	0.024109	0.037384	-0.30563	0.014343	-0.010681	0.015106	-0.007172	-0.26733	-0.038757	-0.002747	-0.012054
42.95	-0.014648	-0.24872	-0.033569	-0.00824	0.038605	0.079803	0.14725	0.004425	-0.008087	-0.62805	-0.000153	-0.005798	0.017242	0.23712	-0.000153	0.092773	0.012817	-0.12054	0.057831	-0.24399	-0.035706	0.010529	-0.064392	-0.27863	0.004425	-0.005493	0.33798	-0.00824	-0.23086	-0.094604	-0.000305	-0.010223
42.951	-0.019989	-0.24124	0.040131	-0.006256	-0.044098	0.20538	0.14404	0.014496	0.035248	-0.39078	-0.001678	-0.009918	-0.035095	0.31403	0.011292	0.3418	0.032654	-0.15198	0.27664	-0.21851	-0.023804	0.003662	-0.058136	-0.30167	0.022583	0.002899	0.67795	-0.009003	-0.13977	-0.095673	-0.000916	-0.003204
42.952	-0.02655	-0.15793	-0.018005	0.017395	-0.14374	0.34866	0.11826	0.006866	0.04776	-0.16937	0.016174	-0.026703	-0.032501	0.30624	0.013885	-0.28442	0.019531	-0.17944	0.16296	-0.10559	-0.02655	-0.005798	-0.12405	-0.31906	0.012817	0.001984	0.77545	-0.001678	-0.15167	0.006409	0.000763	-0.006866
42.953	-0.010986	-0.082703	-0.043182	0.014648	-0.089417	0.33066	0.055695	0.014954	0.028992	0.10712	0.002899	-0.020294	-0.06897	0.2594	0.027618	-0.73883	0.013428	-0.16785	0.072327	0.21393	-0.025635	-0.002747	-0.18448	-0.29297	0.021973	0.00351	0.31967	-0.001678	-0.091095	-0.036011	0	-0.011597
42.954	0.015564	0.002136	-0.090637	-0.001678	0.009155	0.26321	0.076447	0.002899	0.02121	0.27878	-0.00351	-0.007935	-0.10437	0.25467	0.041962	-0.1976	0.10193	-0.17425	0.093994	0.37582	-0.0383	-0.004883	-0.18219	-0.17761	0.035706	0.003967	0.13657	-0.007629	-0.027771	-0.12268	-0.001831	-0.011444
42.955	0.034637	-0.073853	-0.10803	0.002289	0.11826	0.40131	0.067139	0.002441	-0.022278	0.20584	0.007172	-0.002289	-0.1033	-0.12177	0.080719	0.1387	0.15427	-0.15961	0.11398	0.27435	-0.058899	0.024414	-0.031128	-0.10803	0.020905	0.007477	-0.59845	-0.006409	0.12909	-0.18601	0.003204	-0.00061
